<svg version="1.1" xmlns="http://www.w3.org/2000/svg" xmlns:xlink="http://www.w3.org/1999/xlink" viewBox="0 0 133 180.2" xml:space="preserve">
    <path style="fill: #fff;" d="M62.6,62c0-5,7.6-5,7.6,0c0,30.8,0,61.6,0,92.6c0,5-7.6,5-7.6,0C62.6,123.6,62.6,92.8,62.6,62L62.6,62z M90.2,62 c0,30.8,0,61.6,0,92.6c0,5,7.6,5,7.6,0c0-30.8,0-61.6,0-92.6C97.8,57,90.2,57,90.2,62L90.2,62z M35,62c0,30.8,0,61.6,0,92.6 c0,5,7.6,5,7.6,0c0-30.8,0-61.6,0-92.6C42.6,57,35,57,35,62L35,62z M133,23.6v12.6c0,4.4-3.6,8-8,8h-2.4v122c0,7.8-6.2,14-14,14 H24.4c-7.8,0-14-6.2-14-14v-122H8c-4.4,0-8-3.6-8-8V23.6c0-4.4,3.6-8,8-8h34.8V8.8c0-4.8,4-8.8,8.8-8.8h30c4.8,0,8.8,4,8.8,8.8v6.8 h34.8C129.4,15.6,133,19.2,133,23.6z M50.4,15.2h32V8.8c0-0.6-0.4-1-1-1h-30c-0.6-0.2-1,0.2-1,1V15.2z M114.8,44.2H18v122 c0,3.6,2.8,6.4,6.4,6.4h84c3.6,0,6.4-2.8,6.4-6.4V44.2z M125.4,23.6c0-0.2-0.2-0.4-0.4-0.4H7.8c-0.2,0-0.4,0.2-0.4,0.4v12.6 c0,0.2,0.2,0.4,0.4,0.4h2.4h112.2h2.4c0.2,0,0.4-0.2,0.4-0.4V23.6H125.4z"/>
</svg>
